<svg xmlns="http://www.w3.org/2000/svg" viewBox="0 0 400 300" width="406" height="306" class="illustration styles_illustrationTablet__1DWOa"><g id="_144_super_man_flatline" data-name="#144_super_man_flatline"><path d="M115.46,158s-21.19,75.5-75.81,87.89c0,0,21.75,18.54,55,27.55S198.84,280,224.26,280h76.19s-8.12-14.56-16.05-26.66-21.46-26.09-15.52-41,15.52-41,15.52-41-49-25.22-82.22-30.29S115.46,158,115.46,158Z" fill="#F9A826"></path><polygon points="156.85 256.5 150.19 279.96 249.67 279.96 241.79 253.31 156.85 256.5" fill="#231f20"></polygon><path d="M249.67,280.47H150.19a.51.51,0,0,1-.4-.2.53.53,0,0,1-.08-.44l6.66-23.46a.51.51,0,0,1,.46-.37l84.94-3.19a.5.5,0,0,1,.5.36l7.88,26.65a.46.46,0,0,1-.08.44A.49.49,0,0,1,249.67,280.47Zm-98.82-1H249l-7.58-25.64L157.23,257Z" fill="#231f20"></path><path d="M323,193.24c-3.38-8.25-54.44-65.69-69.45-72.83s-51.34-2-51.34-2h-4.11s-36.31-5.15-51.33,2S80.74,185,77.36,193.24s33,36.8,33,36.8l16.45-13.89L111.9,192.87l27-13.52s16.14,42.8,17.64,65.33h87.26c1.5-22.53,17.64-65.33,17.64-65.33l27,13.52-14.95,23.28L290,230S326.42,201.5,323,193.24Z" fill="#fff"></path><path d="M243.83,245.19H156.57a.51.51,0,0,1-.51-.48c-1.39-20.84-15.56-59.62-17.42-64.64l-26,13,14.64,22.8a.51.51,0,0,1-.1.67l-16.45,13.89a.51.51,0,0,1-.65,0c-.09-.07-9.23-7.24-17.82-15.33-11.7-11-16.87-18.42-15.38-22.06,3.26-8,54.21-65.74,69.71-73.1,15-7.12,50.14-2.25,51.62-2h4c1.42-.21,36.57-5.08,51.56,2,15.49,7.36,66.45,65.13,69.71,73.1h0c1.49,3.64-3.69,11.07-15.38,22.06-8.6,8.09-17.73,15.26-17.82,15.33a.51.51,0,0,1-.65,0l-16.45-13.89a.51.51,0,0,1-.1-.67l14.64-22.8-26-13c-1.86,5-16,43.81-17.41,64.64A.51.51,0,0,1,243.83,245.19Zm-86.78-1h86.3c1.68-22.47,17.48-64.56,17.64-65a.57.57,0,0,1,.29-.3.55.55,0,0,1,.42,0l27,13.52a.51.51,0,0,1,.27.32.53.53,0,0,1-.07.42l-14.7,22.9L290,229.37c10.26-8.08,35.17-29.52,32.55-35.93-3.23-7.91-53.81-65.25-69.2-72.56-14.7-7-50.67-2-51-1.94h-4.19c-.43,0-36.4-5-51.11,1.94-15.38,7.31-66,64.65-69.19,72.56-2.63,6.41,22.28,27.85,32.54,35.93l15.79-13.32-14.71-22.9a.52.52,0,0,1-.06-.42.51.51,0,0,1,.27-.32l27-13.52a.53.53,0,0,1,.41,0,.55.55,0,0,1,.3.3C139.57,179.6,155.37,221.69,157.05,244.16Z" fill="#231f20"></path><path d="M173.49,119.29s7.31,19,27.76,19.52c21.32.58,25.53-22.17,25.53-22.17Z" fill="#231f20"></path><path d="M202,139.32h-.81c-20.54-.56-28.13-19.65-28.21-19.84a.48.48,0,0,1,0-.45.49.49,0,0,1,.39-.23l53.29-2.65a.54.54,0,0,1,.4.17.54.54,0,0,1,.12.42C227.22,117,222.85,139.32,202,139.32Zm-27.81-19.57c1.51,3.29,9.28,18.08,27,18.56,18.7.5,24-17.53,24.89-21.14Z" fill="#231f20"></path><path d="M128.41,134.65s9.9-11.23,24.1-12,41.79,9.5,41.79,9.5-10.41-6.61-9.93-12.65a66,66,0,0,0,0-10.74s-22.92.69-37.18,7.85S128.41,134.65,128.41,134.65Z" fill="#F9A826"></path><path d="M269.48,132.17a40.29,40.29,0,0,0-23.28-9c-14.2-.75-38.38,9-38.38,9s8.14-5.84,7.66-11.88-.88-11.88-.88-11.88,24.51,1.06,38.78,8.22S269.48,132.17,269.48,132.17Z" fill="#F9A826"></path><rect x="154.51" y="241.3" width="90.97" height="18.64" fill="#d1d3d4"></rect><path d="M123.63,209.3l-17.18,22.14,23.65,13.24s10.63,12.28,17.6,15.26c11.4,4.87,11.69,3,12.25-1.75s-6.2-15.77-6.2-15.77l2.51-1.12s-6.45-3.1-10.11-6.48S123.63,209.3,123.63,209.3Z" fill="#231f20"></path><path d="M156.91,263.31c-1.85,0-4.73-.92-9.41-2.91-6.8-2.91-16.77-14.25-17.72-15.33l-23.57-13.19a.49.49,0,0,1-.25-.34.48.48,0,0,1,.1-.4L123.23,209a.51.51,0,0,1,.39-.19.48.48,0,0,1,.39.17c.19.22,18.89,22.16,22.48,25.48s9.92,6.37,10,6.4a.49.49,0,0,1,.29.45.51.51,0,0,1-.3.45l-2,.9c1.32,2.22,6.49,11.23,6,15.6-.26,2.17-.46,3.88-1.8,4.66A3.45,3.45,0,0,1,156.91,263.31Zm-49.71-32,23.15,13a.69.69,0,0,1,.13.11c.11.12,10.63,12.23,17.42,15.13,5.92,2.52,9,3.29,10.25,2.56.86-.5,1.06-1.81,1.3-3.91.54-4.56-6-15.34-6.12-15.44a.46.46,0,0,1-.05-.41.49.49,0,0,1,.27-.31l1.54-.7a46.69,46.69,0,0,1-9.28-6.08c-3.39-3.13-19.35-21.8-22.16-25.1Z" fill="#231f20"></path><path d="M276.16,209.3l17.18,22.14-23.65,13.24s-10.63,12.28-17.6,15.26c-11.4,4.87-11.69,3-12.25-1.75s6.2-15.77,6.2-15.77l-2.51-1.12s6.45-3.1,10.11-6.48S276.16,209.3,276.16,209.3Z" fill="#231f20"></path><path d="M242.88,263.31a3.45,3.45,0,0,1-1.74-.4c-1.34-.78-1.54-2.49-1.8-4.66-.51-4.37,4.66-13.38,6-15.6l-2-.9a.51.51,0,0,1-.3-.45.49.49,0,0,1,.29-.45c.06,0,6.42-3.11,10-6.4s22.29-25.26,22.48-25.48a.48.48,0,0,1,.39-.17.51.51,0,0,1,.39.19l17.17,22.15a.48.48,0,0,1,.1.4.49.49,0,0,1-.25.34L270,245.07c-.95,1.08-10.92,12.42-17.72,15.33C247.61,262.39,244.73,263.31,242.88,263.31Zm1.82-22,1.54.7a.49.49,0,0,1,.27.31.46.46,0,0,1,0,.41c-.07.1-6.66,10.88-6.12,15.44.24,2.1.44,3.41,1.3,3.91,1.27.73,4.33,0,10.25-2.56,6.79-2.9,17.31-15,17.42-15.13a.69.69,0,0,1,.13-.11l23.15-13-16.45-21.2c-2.81,3.3-18.77,22-22.16,25.1A46.69,46.69,0,0,1,244.7,241.27Z" fill="#231f20"></path><path d="M172.34,73S163.89,52.46,168,47.58s6.57-2.81,6.57-2.81-4.13-3.57,2.06-8.82,29.29-8.45,41.11-3.57l-2.28,3.94s9.23,1.88,10.35,2.82L220.48,42s2.54.94,5.35,6.39-1.57,32.21-1.57,32.21S179.85,83.86,172.34,73Z" fill="#fff"></path><path d="M209.51,81.56c-13.76,0-32.79-1.33-37.6-8.32a.93.93,0,0,1,0-.1c-.35-.84-8.52-20.83-4.23-25.89,1.8-2.13,3.54-3.28,5.18-3.42h.45a4.63,4.63,0,0,1-.53-2.22c0-2,1.21-4,3.59-6.05,6.52-5.53,30-8.45,41.64-3.65a.52.52,0,0,1,.29.31.54.54,0,0,1,0,.43L216.29,36c2.46.52,8.83,1.91,9.87,2.78a.5.5,0,0,1,.19.45.51.51,0,0,1-.28.4L221.54,42c1,.73,2.84,2.43,4.75,6.12,2.86,5.53-1.34,31.44-1.53,32.54a.51.51,0,0,1-.47.43C223.63,81.12,217.45,81.56,209.51,81.56ZM172.79,72.7c7,10,46.55,7.66,51,7.36.53-3.36,4.09-26.61,1.57-31.49-2.66-5.14-5.06-6.13-5.08-6.13A.53.53,0,0,1,220,42a.5.5,0,0,1,.27-.48l4.46-2.35a89.73,89.73,0,0,0-9.32-2.32.53.53,0,0,1-.37-.3.56.56,0,0,1,0-.47l2-3.42c-11.55-4.39-33.8-1.59-40,3.7-2.13,1.81-3.22,3.57-3.23,5.25a3.91,3.91,0,0,0,1.17,2.79.53.53,0,0,1,0,.73.52.52,0,0,1-.72,0c-.08-.06-2.15-1.61-5.85,2.76C165.2,51.71,170.47,67,172.79,72.7Z" fill="#231f20"></path><path d="M181,76.35c-1.39-8.64-15.73-10.76-15-.58a15,15,0,0,0,3.82,9.56c2.46,2.5,6.42,3.68,9.62,2.25" fill="#fff"></path><path d="M176.44,88.71a9.93,9.93,0,0,1-7-3c-2.92-3-3.77-7-4-9.88-.34-4.88,2.62-7,5.51-7.31,4.32-.5,9.69,2.58,10.53,7.77a.52.52,0,0,1-.43.59.5.5,0,0,1-.59-.43c-.74-4.62-5.56-7.34-9.39-6.9-3.13.36-4.85,2.68-4.6,6.2.18,2.7,1,6.49,3.67,9.24,2.49,2.53,6.21,3.41,9,2.14a.51.51,0,0,1,.42.94A7.77,7.77,0,0,1,176.44,88.71Z" fill="#231f20"></path><path d="M216.74,76.35c1.38-8.64,15.72-10.76,15-.58a15,15,0,0,1-3.82,9.56c-2.46,2.5-6.42,3.68-9.62,2.25" fill="#fff"></path><path d="M221.3,88.71a7.77,7.77,0,0,1-3.2-.66.51.51,0,0,1-.26-.68.52.52,0,0,1,.68-.26c2.84,1.27,6.55.39,9-2.14,2.7-2.75,3.49-6.54,3.68-9.24.24-3.52-1.48-5.84-4.61-6.2-3.84-.45-8.65,2.29-9.38,6.9a.51.51,0,0,1-.6.43.5.5,0,0,1-.42-.59c.83-5.19,6.22-8.26,10.52-7.77,2.89.34,5.85,2.43,5.51,7.31-.19,2.87-1,6.91-4,9.88A10,10,0,0,1,221.3,88.71Z" fill="#231f20"></path><path d="M215.48,119.52S211.6,128,200.28,128a18.27,18.27,0,0,1-15.91-8.45l.48-6,1.11-14,1-13.12h25.84l.86,10.73.26,3.48Z" fill="#fff"></path><path d="M200.28,128.49a19,19,0,0,1-16.36-8.72.49.49,0,0,1-.06-.29l2.64-33.2a.51.51,0,0,1,.51-.48h25.84a.51.51,0,0,1,.51.48l2.64,33.2a.58.58,0,0,1-.05.26C215.91,119.82,211.8,128.49,200.28,128.49ZM184.9,119.4a18,18,0,0,0,15.38,8c10.25,0,14.15-7,14.68-8l-2.59-32.58H187.49Z" fill="#231f20"></path><path d="M214,100.53a23,23,0,0,1-8.49,7.44c-5.56,3.08-13.88,6.54-20.63,5.51l1.11-14a63.32,63.32,0,0,0,14.9.1c4.36-.38,8.85-.81,12.85-2.49Z" fill="#231f20"></path><path d="M187.42,114.16a17.87,17.87,0,0,1-2.65-.19.5.5,0,0,1-.42-.53l1.11-14a.49.49,0,0,1,.19-.35A.52.52,0,0,1,186,99a62.05,62.05,0,0,0,14.78.09c4.06-.35,8.66-.75,12.71-2.45a.48.48,0,0,1,.45,0,.49.49,0,0,1,.24.38l.26,3.48a.52.52,0,0,1-.08.3,23.12,23.12,0,0,1-8.67,7.61C201.63,110.67,194.22,114.16,187.42,114.16Zm-2-1.11c7.05.86,15.43-3.06,19.86-5.52a22.39,22.39,0,0,0,8.22-7.13l-.2-2.63c-4,1.54-8.44,1.92-12.36,2.27a63.67,63.67,0,0,1-14.48,0Z" fill="#231f20"></path><path d="M200.68,102.75h-2.31A19.8,19.8,0,0,1,178.58,83V51.6l22.79,5.65,19.11-5.65V83A19.8,19.8,0,0,1,200.68,102.75Z" fill="#fff"></path><path d="M200.68,103.26h-2.31A20.33,20.33,0,0,1,178.06,83V51.6a.51.51,0,0,1,.2-.41.52.52,0,0,1,.44-.09l22.66,5.62,19-5.61a.5.5,0,0,1,.46.08.52.52,0,0,1,.21.41V83A20.34,20.34,0,0,1,200.68,103.26Zm-21.59-51V83a19.3,19.3,0,0,0,19.28,19.28h2.31A19.31,19.31,0,0,0,220,83V52.29l-18.46,5.46a.5.5,0,0,1-.27,0Z" fill="#231f20"></path><path d="M177.7,67.65v-1.8l.37-.11,3.36-.7a23.82,23.82,0,0,1,5.51-.68,38,38,0,0,1,7.94,1.09,19.49,19.49,0,0,0,8.36.28c2-.38,4.08-.77,6.13-1.12a18.23,18.23,0,0,1,4.61-.2,56.6,56.6,0,0,1,7,1.39.61.61,0,0,1,.52.67c0,.53,0,1,0,1.57a.73.73,0,0,1-.37.69,2.19,2.19,0,0,0-.9,1.11,7.92,7.92,0,0,0-.33.93c-.33,1.19-.62,2.38-1,3.56a6.74,6.74,0,0,1-4.5,4.65,10.08,10.08,0,0,1-5.11.36,8,8,0,0,1-6-4.23,20.05,20.05,0,0,1-1.42-3.5,8.12,8.12,0,0,0-.75-1.54,1,1,0,0,0-.59-.4,6.47,6.47,0,0,0-1.25-.07.91.91,0,0,0-.91.59,10.41,10.41,0,0,0-.57,1.59,12.11,12.11,0,0,1-2,4.19,7.46,7.46,0,0,1-4.17,3.2,11.8,11.8,0,0,1-2,.33,11.57,11.57,0,0,1-5.61-.79,4.71,4.71,0,0,1-2.62-2.34A30.13,30.13,0,0,1,179.56,71a3.7,3.7,0,0,0-.94-1.79A2.85,2.85,0,0,1,177.7,67.65Z" fill="#231f20"></path><path d="M200,87.55a26.12,26.12,0,0,1-3-.17.51.51,0,0,1-.44-.58.5.5,0,0,1,.57-.44,26.91,26.91,0,0,0,5.62,0,.26.26,0,0,0,.18-.14c.93-1.55-1.51-9.38-3.27-14a.52.52,0,0,1,.3-.67.51.51,0,0,1,.66.3c.49,1.26,4.68,12.38,3.2,14.86a1.28,1.28,0,0,1-.94.63A24,24,0,0,1,200,87.55Z" fill="#231f20"></path><path d="M192.74,93.66a.51.51,0,0,1-.5-.42.51.51,0,0,1,.41-.6c.38-.08,9.51-1.8,15.29-.35a.51.51,0,0,1,.38.62.52.52,0,0,1-.63.38c-5.56-1.39-14.75.35-14.85.36Z" fill="#231f20"></path><path d="M200,208.09c-18.16,0-32.93-12.31-32.93-27.44s14.77-27.43,32.93-27.43,32.93,12.3,32.93,27.43S218.16,208.09,200,208.09Zm0-53.87c-17.61,0-31.93,11.86-31.93,26.43s14.32,26.44,31.93,26.44,31.93-11.86,31.93-26.44S217.61,154.22,200,154.22Z" fill="#d1d3d4"></path><path d="M138.93,179.87a.51.51,0,0,1-.36-.15c-5.22-5.07-7.3-12.31-7.39-12.61a.53.53,0,0,1,.36-.64.51.51,0,0,1,.64.36c0,.07,2.09,7.27,7.11,12.15a.53.53,0,0,1,0,.73A.52.52,0,0,1,138.93,179.87Z" fill="#231f20"></path><path d="M261.47,179.87a.51.51,0,0,1-.34-.9c.06-.06,3.64-3.35,7.08-15.3a.52.52,0,1,1,1,.29c-3.56,12.35-7.24,15.65-7.39,15.78A.5.5,0,0,1,261.47,179.87Z" fill="#231f20"></path></g></svg>