<svg xmlns="http://www.w3.org/2000/svg" xmlns:xlink="http://www.w3.org/1999/xlink" viewBox="0 0 400 300" width="406" height="306" class="illustration styles_illustrationTablet__1DWOa"><defs><linearGradient id="linear-gradient" x1="91.7" y1="193.47" x2="129.29" y2="165.41" gradientUnits="userSpaceOnUse"><stop offset="0" stop-color="#fff" stop-opacity="0"></stop><stop offset="0.98" stop-color="#f15a24"></stop></linearGradient><linearGradient id="linear-gradient-2" x1="169.17" y1="182.03" x2="206.76" y2="153.98" xlink:href="#linear-gradient"></linearGradient><linearGradient id="linear-gradient-3" x1="512.42" y1="227.18" x2="505.97" y2="238.15" gradientTransform="matrix(-1, 0, 0, 1, 763.48, 0)" gradientUnits="userSpaceOnUse"><stop offset="0" stop-color="#d4a397"></stop><stop offset="1" stop-color="#fff"></stop></linearGradient><linearGradient id="linear-gradient-4" x1="202.79" y1="158.5" x2="212.84" y2="144.22" gradientUnits="userSpaceOnUse"><stop offset="0" stop-color="#fff" stop-opacity="0"></stop><stop offset="1" stop-color="#d43500"></stop></linearGradient></defs><title>OK</title><g style="isolation: isolate;"><g id="Layer_2" data-name="Layer 2"><path d="M205.82,286.53l142.42-83.2a8,8,0,0,0,0-13.75L206.11,107.06a7.87,7.87,0,0,0-6.5-.67c-.14,0,3.37-1.09,3.27-1L52.76,189.93a8,8,0,0,0-.14,13.78l140.15,82.73A13.54,13.54,0,0,0,205.82,286.53Z" fill="#ffc963"></path><path d="M155.72,144.82l-11.79-3.44c-13.39,7.45-26,16.32-38.56,25.09-8.81,6.14-17.92,12-26.85,18,1.68.9,3.57,1.84,5.81,2.86,1.17.53,14.37,8.5,15.71,9l62.21-36.76Z" opacity="0.32" fill="url(#linear-gradient)" style="mix-blend-mode: multiply;"></path><path d="M168.14,184.44c1.17.53,14.37,8.5,15.71,9l62.21-36.76-6.53-14.8-30.89-9L143,169.5C154.09,175.92,156.51,179.14,168.14,184.44Z" opacity="0.32" fill="url(#linear-gradient-2)" style="mix-blend-mode: multiply;"></path><path d="M151.2,138.24l16.81,8.7a4.31,4.31,0,0,1,.27,7.34l-39.85,25a3.71,3.71,0,0,1-5.21-1.34l-9.68-16.19" fill="#00275e"></path><path d="M59.72,96.39l134.09-83c4-2.5,9.07.63,9.07,5.63v86.38a5.49,5.49,0,0,1-2.51,4.68L57.44,198.72a3.25,3.25,0,0,1-4.87-3v-86A15.59,15.59,0,0,1,59.72,96.39Z" fill="#F9A826"></path><path d="M193.8,19.88l-130,80.41a10,10,0,0,0-4.57,8.49v64.75a3.3,3.3,0,0,0,4.93,3.07L196.74,94.82a3.54,3.54,0,0,0,1.63-3V22.73A3.06,3.06,0,0,0,193.8,19.88Z" fill="#00275e"></path><path d="M136.93,138c-.34,1.88.63,3.67,2.16,4s3-1,3.39-2.84-.63-3.67-2.16-4S137.27,136.14,136.93,138Z" fill="#ab643c"></path><polygon points="147.49 63.47 147.49 66.85 175.72 50.45 175.72 47.15 147.49 63.47" fill="#f7931e"></polygon><polygon points="144.68 65.1 65.1 111.1 65.1 114.73 144.68 68.48 144.68 65.1" fill="#00a99d"></polygon><polygon points="77.55 114.89 65.1 122.09 65.1 125.72 77.55 118.48 77.55 114.89" fill="#8cc63f"></polygon><polygon points="80.36 113.27 80.36 116.85 124.92 90.95 124.92 87.51 80.36 113.27" fill="#f7931e"></polygon><polygon points="127.73 85.88 127.73 89.32 156.87 72.38 156.87 69.03 127.73 85.88" fill="#f15a24"></polygon><polygon points="159.68 67.41 159.68 70.75 175.72 61.43 175.72 58.14 159.68 67.41" fill="#8cc63f"></polygon><polygon points="145.58 86.46 66 132.47 66 136.1 145.58 89.85 145.58 86.46" fill="#00a99d"></polygon><polyline points="225.51 64.58 229.77 62.32 228.83 58.85 224.75 58.36" fill="#a03500"></polyline><polyline points="222.64 34.83 226.89 32.58 228.24 38.72 224.04 39.21" fill="#a03500"></polyline><polyline points="237.24 59.33 241.49 57.07 238.41 55.04 235.93 56.59" fill="#a03500"></polyline><polyline points="233.81 41.55 238.14 51.28 241.14 51.28 241.99 45.89 237.04 41.55" fill="#a03500"></polyline><path d="M242.51,44.21A13.76,13.76,0,0,1,244.37,52q-.31,3.83-2.88,5.08-2.34,1.14-5.56-.48l-.63-.34-4.83-2.76-.71,8.83-5-2.86,2.14-26.89,9.85,5.62A15.14,15.14,0,0,1,242.51,44.21Zm-3.15,4.93a5.83,5.83,0,0,0-.79-3.3,6.2,6.2,0,0,0-2.41-2.54l-4.66-2.67-.62,7.66L235.55,51l.25.13a2.56,2.56,0,0,0,2.34.19,2.36,2.36,0,0,0,1.22-2.14" fill="#a03500"></path><polygon points="268.96 56.59 287.32 67.07 286.9 72.27 280.23 68.46 278.5 90.14 273.49 87.29 275.23 65.6 268.54 61.79 268.96 56.59" fill="#a03500"></polygon><polygon points="246.25 43.63 251.59 46.68 256.18 61.35 262.61 52.97 267.96 56.03 258.23 68.55 257.46 78.13 252.45 75.27 253.22 65.68 246.25 43.63" fill="#a03500"></polygon><polygon points="290.98 69.17 296.01 72.04 295.14 82.8 305.16 88.51 306.02 77.76 311.02 80.61 308.87 107.49 303.87 104.63 304.74 93.68 294.73 87.97 293.86 98.91 288.83 96.05 290.98 69.17" fill="#a03500"></polygon><path d="M337.11,99.21a21.53,21.53,0,0,1,2.89,12q-.47,5.79-4.47,7.8-3.67,1.84-8.46-.56-.44-.22-.89-.48a22.67,22.67,0,0,1-8.68-9.26,21.45,21.45,0,0,1-2.89-12q.46-5.79,4.46-7.8,3.67-1.83,8.46.57.44.22.88.47A22.75,22.75,0,0,1,337.11,99.21Zm-2.3,9a13.78,13.78,0,0,0-1.68-7.52,13.31,13.31,0,0,0-5.12-5.6l-.48-.26a5.18,5.18,0,0,0-5-.22q-2.39,1.31-2.69,5a13.72,13.72,0,0,0,1.68,7.51,13.28,13.28,0,0,0,5.12,5.59l.48.26a5.2,5.2,0,0,0,5,.23q2.39-1.29,2.69-5" fill="#a03500"></path><polygon points="345.73 100.43 350.08 102.92 360.23 126.58 361.6 109.49 366.6 112.34 364.45 139.22 360.11 136.74 349.97 113.1 348.6 130.18 343.59 127.31 345.73 100.43" fill="#a03500"></polygon><polyline points="241.99 45.89 246.25 43.63 251.59 46.68 249.74 48.79 253.36 63.14 251.01 65.79" fill="#a03500"></polyline><polyline points="258.36 55.23 262.61 52.97 267.96 56.03 258.23 68.55 257.46 78.13 253.21 80.39 253.98 70.8" fill="#a03500"></polyline><polyline points="264.71 58.85 268.96 56.59 287.32 67.07 286.9 72.27 282.64 74.53" fill="#a03500"></polyline><polyline points="274.25 92.4 278.5 90.14 274.25 85.05" fill="#a03500"></polyline><path d="M309.36,83.58,306,77.76,301.76,80l.27,8.1-2.11-.92-5.62-5.28L296,72l-5-2.87-4.25,2.26,9.69,20.75a1.54,1.54,0,0,1,2.28.12c2,2.21,3.85,4.46,4.14,7.51a1.55,1.55,0,0,1-.82,1.48,1.65,1.65,0,0,1-.85,1.05l3.46,7.41,4.25-2.26-.29-16.38Z" fill="#a03500"></path><polyline points="289.61 101.17 293.86 98.91 291.73 95.31 287.86 96.09" fill="#a03500"></polyline><path d="M312.69,102.69c.1.73,3.32,15.2,7.13,14.81s5.28-1.27,5.28-1.27L318.26,107l-3.52-5.38Z" fill="#a03500"></path><polygon points="327.3 91.89 335.8 99.9 336.73 105.38 334.61 109.58 329.69 102.69 326.47 95.99 323.93 93.06 327.3 91.89" fill="#a03500"></polygon><polyline points="314.82 91.17 319.07 88.91 317.99 91.89 315.48 92.06" fill="#a03500"></polyline><polyline points="331.27 121.27 336.73 118.26 335.06 116.74 332.9 118.59" fill="#a03500"></polyline><polyline points="341.47 102.69 345.73 100.43 352.79 112.11 355.49 119.83 356.95 124.06 357.34 111.75 361.6 109.49 364.89 114.73 361.73 126.61 364.45 139.22 360.2 141.48 350.84 122.08 348.63 118.59 348.6 130.18 344.35 132.43" fill="#a03500"></polyline><path d="M238.26,46.46a13.76,13.76,0,0,1,1.85,7.78q-.31,3.83-2.88,5.08-2.34,1.14-5.56-.48l-.63-.34-4.83-2.76-.71,8.83-5-2.86,2.14-26.89,9.85,5.62A15.14,15.14,0,0,1,238.26,46.46Zm-3.15,4.93a5.83,5.83,0,0,0-.79-3.3,6.2,6.2,0,0,0-2.41-2.54l-4.66-2.67-.62,7.66,4.66,2.67.25.13a2.56,2.56,0,0,0,2.34.19,2.36,2.36,0,0,0,1.22-2.14" fill="#f7931e"></path><polygon points="264.71 58.85 283.06 69.33 282.64 74.53 275.98 70.71 274.25 92.4 269.24 89.55 270.97 67.86 264.29 64.05 264.71 58.85" fill="#f7931e"></polygon><polygon points="241.99 45.89 247.34 48.94 251.93 63.61 258.36 55.23 263.71 58.29 253.98 70.8 253.21 80.39 248.19 77.53 248.96 67.93 241.99 45.89" fill="#f7931e"></polygon><polygon points="286.73 71.42 291.75 74.3 290.89 85.06 300.91 90.77 301.76 80.01 306.77 82.87 304.62 109.74 299.62 106.89 300.49 95.94 290.48 90.23 289.61 101.17 284.58 98.31 286.73 71.42" fill="#f7931e"></polygon><path d="M332.86,101.47a21.53,21.53,0,0,1,2.89,12q-.47,5.79-4.47,7.8-3.67,1.84-8.46-.56-.44-.22-.89-.48a22.67,22.67,0,0,1-8.68-9.26,21.45,21.45,0,0,1-2.89-12q.46-5.79,4.46-7.8,3.67-1.83,8.46.57.44.22.88.47A22.75,22.75,0,0,1,332.86,101.47Zm-2.3,9a13.78,13.78,0,0,0-1.68-7.52,13.31,13.31,0,0,0-5.12-5.6l-.48-.26a5.18,5.18,0,0,0-5-.22q-2.39,1.31-2.69,5a13.72,13.72,0,0,0,1.68,7.51,13.28,13.28,0,0,0,5.12,5.59l.48.26a5.2,5.2,0,0,0,5,.23q2.39-1.29,2.69-5" fill="#f7931e"></path><polygon points="341.47 102.69 345.83 105.17 355.98 128.84 357.34 111.75 362.35 114.6 360.2 141.48 355.86 139 345.72 115.35 344.35 132.43 339.33 129.56 341.47 102.69" fill="#f7931e"></polygon><polyline points="231.97 234.98 324.11 186.46 338.19 195.64 187.94 277.89 167.25 264.36" fill="url(#linear-gradient-3)" style="mix-blend-mode: multiply;"></polyline><path d="M275.25,158.54l48.86,27.92a3.35,3.35,0,0,1,0,5.82L188.41,270.34a10.84,10.84,0,0,1-10.83,0l-45.71-26.4a3.5,3.5,0,0,1,0-6.06l137.32-79.32A6.08,6.08,0,0,1,275.25,158.54Z" fill="#00275e"></path><path d="M201.41,203l13.95,8.27-10.35,6c-2.92-1.7-11.29-6.64-14-8.24Z" fill="#F9A826"></path><path d="M216.7,194.17l13.95,8.27L217.54,210c-2.29-1.33-10.74-6.32-14-8.24Z" fill="#F9A826"></path><path d="M272.22,161.93l14.17,8.14-12.61,7.32c-2-1.15-10.55-6.2-14-8.24Z" fill="#F9A826"></path><path d="M242.37,179.26l13.95,8.27-10.35,6c-2.45-1.42-10.86-6.39-14-8.24Z" fill="#F9A826"></path><path d="M257.65,170.39l13.95,8.27-13.1,7.61c-1.55-.88-10.32-6.06-14-8.23Z" fill="#F9A826"></path><path d="M188.89,210.32l13.95,8.27-9.91,5.75c-3-1.74-11.36-6.68-14-8.24Z" fill="#F9A826"></path><path d="M229.84,186.54l13.95,8.27-11,6.37c-2.58-1.5-11-6.45-14-8.24Z" fill="#F9A826"></path><path d="M176.81,217.33l13.95,8.27-13.11,7.61c-2.74-1.6-11.11-6.54-14-8.24Z" fill="#F9A826"></path><polygon points="161.52 226.21 175.47 234.48 151.94 248.14 137.78 240 161.52 226.21" fill="#F9A826"></polygon><path d="M288.19,172.48l14.17,8.14L284,191.26c-2.4-1.39-10.82-6.36-14-8.24Z" fill="#F9A826"></path><path d="M252.63,193.13l13.95,8.27-10.35,6c-2.77-1.61-11.14-6.55-14-8.24Z" fill="#F9A826"></path><path d="M227,208l13.95,8.27-13.11,7.61c-2.63-1.53-11-6.48-14-8.24Z" fill="#F9A826"></path><path d="M240.1,200.4l13.95,8.27-11,6.37c-2.88-1.68-11.25-6.62-14-8.24Z" fill="#F9A826"></path><path d="M211.68,216.91l13.95,8.27-10.36,6c-3.2-1.87-11.62-6.84-14-8.24Z" fill="#F9A826"></path><path d="M199.15,224.19l13.95,8.27-9.91,5.75c-3.25-1.9-11.7-6.88-14-8.24Z" fill="#F9A826"></path><path d="M267.92,184.25l13.95,8.27-13.11,7.61c-2.08-1.2-10.6-6.23-14-8.24Z" fill="#F9A826"></path><path d="M187.07,231.2,201,239.47l-13.11,7.62c-3-1.77-11.41-6.72-14-8.24Z" fill="#F9A826"></path><polygon points="185.73 248.34 167.92 258.69 153.75 250.55 171.79 240.08 185.73 248.34" fill="#F9A826"></polygon><polygon points="196.16 246.93 206.54 253.09 194.51 260.06 183.97 254 196.16 246.93" fill="#F9A826"></polygon><polygon points="192.02 261.5 181.79 267.43 171.24 261.4 181.66 255.35 192.02 261.5" fill="#F9A826"></polygon><polygon points="305.68 183.33 316.53 189.36 304.21 196.5 293.55 190.37 305.68 183.33" fill="#F9A826"></polygon><polygon points="291.25 191.71 301.73 197.94 288.57 205.56 277.92 199.45 291.25 191.71" fill="#F9A826"></polygon><polygon points="275.61 200.79 286.07 207 209.04 251.64 198.49 245.57 275.61 200.79" fill="#F9A826"></polygon><ellipse cx="220.92" cy="150.56" rx="26.37" ry="13.19" fill="#00275e"></ellipse><polyline points="194.55 144.46 194.55 150.56 247.29 150.56 247.29 144.46" fill="#00275e"></polyline><ellipse cx="220.92" cy="144.46" rx="26.37" ry="13.19" fill="#1a4982"></ellipse><polyline points="234.05 143.39 199.66 163.16 185.53 153.72 216.53 136.78" opacity="0.32" fill="url(#linear-gradient-4)"></polyline><polyline points="212.13 129.3 212.13 142.3 233.15 142.3 233.15 129.3" fill="#f8997c"></polyline><ellipse cx="222.64" cy="129.3" rx="10.51" ry="5.17" fill="#dd654a"></ellipse><ellipse cx="222.64" cy="142.8" rx="10.51" ry="5.17" fill="#f8997c"></ellipse><path d="M234.41,99.09c-2.22-.91-5.29-3.93-8-3.83a31.41,31.41,0,0,0-1.63,8,72.37,72.37,0,0,0-.3,13.31q.1,1.48.24,3a2.36,2.36,0,0,0,.23.83q0,5.14,0,10.29a.33.33,0,0,0,.65,0q0-4.95,0-9.89a14.58,14.58,0,0,0,3-1.39,10.24,10.24,0,0,0,4.24-5.32c1.7-4.72.63-10,2.24-14.67C234.88,99.27,234.64,99.19,234.41,99.09Z" fill="#297600"></path><path d="M229.86,91.35a8.24,8.24,0,0,0-3,3.07,5.15,5.15,0,0,0-.47.91l-.09.2h0a13.74,13.74,0,0,0-.51,1.63,2,2,0,0,1,1.12-.88,2.78,2.78,0,0,1,1.76-.16,7.35,7.35,0,0,1,1.61.86c.75.46,1.47,1,2.21,1.43,3.48,2.21,8.12,2.44,10.81-.78,0-.13.07-.26.09-.39C243.78,95,237.57,86.88,229.86,91.35Z" fill="#5fad00"></path><path d="M241.75,99l.43-.29a.3.3,0,0,0-.09-.25c-2.11-2.16-4.37-4.28-7.24-5.35a12.41,12.41,0,0,0-6.47-.63c-.23.27-.45.56-.66.84a11.23,11.23,0,0,1,7.44.62,20.81,20.81,0,0,1,6.47,5A.31.31,0,0,0,241.75,99Z" fill="#297600"></path><path d="M206.47,103.71a8.78,8.78,0,0,0-4.7,8.42c.25,6.2,10.47.15,13.18-5.09s3.14,2.23,3.14,2.23" fill="#297600"></path><path d="M215.67,101.54a18.5,18.5,0,0,0-5.67.79,13.76,13.76,0,0,0-3.53,1.38,11.38,11.38,0,0,0,2,1.09,6.21,6.21,0,0,1,3.3,2.37,4.71,4.71,0,0,1,.39.93c.62,2,.08,4.51.92,6.57a5.87,5.87,0,0,0,5,4c2.88.18,4.2-2.59,4.77-5s1.35-5.66.44-8.12C222.24,102.71,218.39,101.67,215.67,101.54Z" fill="#5fad00"></path><path d="M219.46,111.22c-1.21-3.92-3.77-7.61-7.52-9.35h-.14l-.18.06-.68.18c4.37,1.62,7.11,5.93,8.23,10.33,1.43,5.63.95,11.72,1,17.48a.3.3,0,0,0,.6,0C220.72,123.77,221.29,117.18,219.46,111.22Z" fill="#297600"></path></g></g></svg>